<svg xmlns="http://www.w3.org/2000/svg" width="55" height="39" viewBox="0 0 55 39" fill="none">
  <path d="M16.3022 3.20183C13.2292 3.75949 9.89125 11.5664 8.6064 15.4001L47.0554 17.4893C45.7739 15.0498 43.0188 9.68298 42.25 7.73139C41.4811 5.77981 38.2987 3.66565 36.8036 2.85253C31.2503 2.7366 19.3753 2.64417 16.3022 3.20183Z" fill="#C8F7FB"/>
  <path d="M41.3719 21.1265C39.4267 21.1266 37.8501 22.83 37.85 24.9315C37.8499 27.033 39.4264 28.7362 41.3716 28.7361C43.3168 28.736 44.8934 27.0327 44.8935 24.9312C44.8936 22.8297 43.3171 21.1265 41.3719 21.1265ZM41.3717 26.1996C40.7237 26.1996 40.1978 25.6314 40.1978 24.9314C40.1979 24.2313 40.7238 23.6631 41.3718 23.6631C42.0198 23.663 42.5457 24.2312 42.5457 24.9313C42.5456 25.6313 42.0197 26.1995 41.3717 26.1996ZM13.198 21.1278C11.2528 21.1279 9.6762 22.8312 9.67611 24.9327C9.67602 27.0342 11.2525 28.7374 13.1977 28.7373C15.1429 28.7372 16.7195 27.0339 16.7196 24.9324C16.7197 22.8309 15.1432 21.1277 13.198 21.1278ZM13.1978 26.2008C12.5498 26.2008 12.0239 25.6327 12.0239 24.9326C12.024 24.2325 12.5499 23.6643 13.1979 23.6643C13.8459 23.6643 14.3718 24.2324 14.3718 24.9325C14.3717 25.6326 13.8458 26.2008 13.1978 26.2008ZM34.3284 21.1269L20.2415 21.1275C19.5935 21.1275 19.0675 21.6957 19.0675 22.3958C19.0675 23.0959 19.5934 23.664 20.2414 23.664L34.3283 23.6634C34.9763 23.6633 35.5023 23.0951 35.5023 22.3951C35.5023 21.695 34.9764 21.1268 34.3284 21.1269ZM30.8065 26.2L23.763 26.2003C23.115 26.2004 22.5891 26.7686 22.589 27.4687C22.589 28.1687 23.1149 28.7369 23.7629 28.7369L30.8064 28.7366C31.4544 28.7365 31.9803 28.1683 31.9804 27.4682C31.9804 26.7682 31.4545 26.2 30.8065 26.2Z" fill="#3C0DEF"/>
  <path d="M50.7645 9.71154C45.6932 9.71176 45.6932 9.57225 45.2236 10.1176L43.8503 7.17532C42.0778 3.31609 38.447 0.864707 34.4592 0.834443L20.1727 0.835068C16.1849 0.86568 12.5539 3.31738 10.7811 7.17677L9.34884 10.1192C8.89103 9.58654 8.93799 9.71337 3.80799 9.71359C1.86281 9.71368 0.286176 11.417 0.286088 13.5185L0.285981 16.055C0.285952 16.7551 0.811841 17.3233 1.45984 17.3232L5.67419 17.3231C4.0189 19.1114 4.0189 19.0606 3.90149 19.3777C3.78409 19.6948 3.80758 19.365 3.80729 26.2009C3.80727 26.8351 4.089 27.038 4.98113 27.9891L4.98073 37.6152C4.9807 38.3153 5.50659 38.8835 6.15459 38.8834L13.1981 38.8831C13.8461 38.8831 14.372 38.3149 14.372 37.6148L14.3722 33.81L40.1983 33.8089L40.1981 37.6137C40.1981 38.3138 40.724 38.8819 41.372 38.8819L48.4154 38.8816C49.0635 38.8815 49.5894 38.3133 49.5894 37.6133L49.5898 27.9872C51.0808 26.3764 50.7638 27.5306 50.7641 19.8576C50.7641 19.1601 50.4354 18.9698 48.8977 17.3212L53.112 17.321C53.76 17.321 54.2859 16.7528 54.286 16.0527L54.2861 13.5162C54.2862 11.4147 52.7097 9.71145 50.7645 9.71154ZM43.2388 31.2723L11.3319 31.2736L6.15514 25.6809L6.15536 20.3795L7.81066 18.5912L46.7611 18.5895L48.4162 20.3777L48.416 25.679L43.2388 31.2723ZM12.8237 8.28006C14.2149 5.27296 17.0606 3.37172 20.1726 3.37158L34.4004 3.37096C37.5125 3.37083 40.358 5.27182 41.7489 8.2788L45.3408 16.0531L9.2312 16.0546L12.8237 8.28006ZM2.63391 13.5184C2.63394 12.8183 3.15988 12.2501 3.80788 12.2501L7.32962 12.25C7.32951 14.8499 7.32953 14.3806 7.18864 14.7865L2.63386 14.7867L2.63391 13.5184ZM12.0243 36.3467L7.32861 36.3469L7.32885 30.5256C10.8504 34.3302 9.97002 33.8102 12.0244 33.8101L12.0243 36.3467ZM47.2416 36.3451L42.546 36.3453L42.5461 33.8088C44.6474 33.8087 43.8022 34.24 47.2419 30.5238L47.2416 36.3451ZM51.9382 14.7845C46.7143 14.7847 47.4421 14.9115 47.2426 14.4803L47.2427 12.2482L50.7644 12.2481C51.4124 12.248 51.9383 12.8162 51.9383 13.5163L51.9382 14.7845Z" fill="#3C0DEF"/>
</svg>