<svg xmlns="http://www.w3.org/2000/svg" width="43" height="43" viewBox="0 0 43 43" fill="none">
  <path d="M3.62403 36.9921L38.9367 36.9905L41.1437 36.9905L41.1436 41.3747L1.41681 41.3764L1.41699 36.9922L3.62403 36.9921Z" fill="#F5F0FF"/>
  <path d="M38.9406 32.6069L38.9404 36.9911L3.62775 36.9926L3.62793 32.6084L5.83497 32.6083L10.2491 32.6081L19.0772 32.6077L23.4913 32.6075L32.3195 32.6071L36.7335 32.607L38.9406 32.6069Z" fill="#F5F0FF"/>
  <path d="M38.9418 8.49277L38.9415 15.0691L36.7345 15.0692L32.3204 15.0694L23.4922 15.0698L19.0781 15.07L10.25 15.0704L5.83588 15.0706L3.62884 15.0707L3.62912 8.49432L21.2857 1.9172L38.9418 8.49277Z" fill="#F5F0FF"/>
  <path d="M10.2461 15.0691L5.83203 15.0693L5.83129 32.6063L10.2454 32.6061L10.2461 15.0691Z" fill="#C8F7FB"/>
  <path d="M36.738 15.068L7.31616 15.0693L7.31543 32.6063L36.7373 32.605L36.738 15.068Z" fill="#C8F7FB"/>
  <path d="M36.7381 15.0682L32.324 15.0684L32.3232 32.6053L36.7373 32.6051L36.7381 15.0682Z" fill="#C8F7FB"/>
  <path d="M38.9448 16.1648L3.63215 16.1664C3.02301 16.1664 2.52865 15.6754 2.52868 15.0704L2.52896 8.49403C2.5047 8.01615 2.78722 7.57552 3.23526 7.39794L20.8919 0.82082C21.1501 0.733124 21.4282 0.733112 21.6864 0.820785L39.3424 7.39636C39.7905 7.5739 40.073 8.01451 40.0487 8.49239L40.0484 15.0687C40.0484 15.6738 39.554 16.1648 38.9448 16.1648ZM4.73577 13.9742L37.8414 13.9728L37.8416 9.25973L21.289 3.01292L4.73597 9.26117L4.73577 13.9742ZM38.9439 38.086L3.63123 38.0876C3.02209 38.0876 2.52773 37.5966 2.52776 36.9915L2.52794 32.6073C2.52797 32.0023 3.02237 31.5112 3.63151 31.5112L38.9442 31.5097C39.5533 31.5096 40.0477 32.0006 40.0476 32.6057L40.0475 36.9899C40.0474 37.5949 39.553 38.086 38.9439 38.086ZM4.73485 35.8954L37.8405 35.8939L37.8406 33.7018L4.73494 33.7033L4.73485 35.8954Z" fill="#3C0DEF"/>
  <path d="M5.83318 33.7034C5.22404 33.7034 4.72968 33.2124 4.72971 32.6074L4.73044 15.0705C4.73047 14.4655 5.22487 13.9744 5.83401 13.9744C6.44315 13.9743 6.93751 14.4654 6.93748 15.0704L6.93675 32.6073C6.93672 33.2123 6.44232 33.7034 5.83318 33.7034ZM10.2473 33.7032C9.63812 33.7032 9.14376 33.2122 9.14379 32.6072L9.14453 15.0703C9.14455 14.4653 9.63895 13.9742 10.2481 13.9742C10.8572 13.9741 11.3516 14.4652 11.3516 15.0702L11.3508 32.6071C11.3508 33.2121 10.8564 33.7032 10.2473 33.7032ZM19.0754 33.7028C18.4663 33.7029 17.9719 33.2119 17.972 32.6068L17.9727 15.0699C17.9727 14.4649 18.4671 13.9738 19.0763 13.9738C19.6854 13.9738 20.1798 14.4648 20.1797 15.0698L20.179 32.6067C20.179 33.2118 19.6846 33.7028 19.0754 33.7028ZM23.4895 33.7026C22.8804 33.7027 22.386 33.2117 22.386 32.6066L22.3868 15.0697C22.3868 14.4647 22.8812 13.9736 23.4903 13.9736C24.0995 13.9736 24.5938 14.4646 24.5938 15.0696L24.5931 32.6065C24.5931 33.2116 24.0987 33.7026 23.4895 33.7026ZM32.3177 33.7023C31.7085 33.7023 31.2142 33.2113 31.2142 32.6062L31.2149 15.0693C31.215 14.4643 31.7094 13.9732 32.3185 13.9732C32.9276 13.9732 33.422 14.4642 33.422 15.0692L33.4212 32.6062C33.4212 33.2112 32.9268 33.7022 32.3177 33.7023ZM36.7318 33.7021C36.1226 33.7021 35.6283 33.2111 35.6283 32.6061L35.629 15.0691C35.629 14.4641 36.1234 13.973 36.7326 13.973C37.3417 13.973 37.8361 14.464 37.8361 15.069L37.8353 32.606C37.8353 33.211 37.3409 33.702 36.7318 33.7021ZM41.1455 42.4703L1.41873 42.4721C0.809586 42.4721 0.315229 41.9811 0.315255 41.3761L0.315439 36.9918C0.315464 36.3868 0.809862 35.8958 1.41901 35.8957L3.62605 35.8956C4.23519 35.8956 4.72955 36.3866 4.72952 36.9916C4.7295 37.5967 4.2351 38.0877 3.62595 38.0877L2.52243 38.0878L2.52234 40.2799L40.042 40.2783L40.0421 38.0862L38.9386 38.0862C38.3295 38.0862 37.8351 37.5952 37.8351 36.9902C37.8352 36.3852 38.3296 35.8941 38.9387 35.8941L41.1457 35.894C41.7549 35.894 42.2492 36.385 42.2492 36.99L42.249 41.3742C42.249 41.9793 41.7546 42.4703 41.1455 42.4703Z" fill="#3C0DEF"/>
</svg>