<svg xmlns="http://www.w3.org/2000/svg" width="32" height="42" viewBox="0 0 32 42" fill="none">
  <rect x="1.22686" y="40.676" width="38.7336" height="22.0948" rx="2.8" transform="rotate(-90 1.22686 40.676)" stroke="#3C0DEF" stroke-width="2.4"/>
  <path d="M9.08301 6.80566H15.4648" stroke="#3C0DEF" stroke-width="2.4" stroke-linecap="round"/>
  <path d="M21.8262 31.9338C26.5157 31.9336 30.3174 27.8945 30.3176 22.9121C30.3178 17.9298 26.5164 13.891 21.827 13.8912C17.1375 13.8914 13.3358 17.9306 13.3356 22.9129C13.3353 27.8952 17.1367 31.934 21.8262 31.9338Z" fill="#C8F7FB"/>
  <path d="M21.826 33.0611C16.5509 33.0614 12.2738 28.5171 12.274 22.9126C12.2742 17.3081 16.5496 12.7635 21.8268 12.7633C27.104 12.763 31.3791 17.3073 31.3788 22.9118C31.368 28.5117 27.0968 33.0496 21.826 33.0611ZM21.8267 15.0186C17.7234 15.0188 14.3969 18.553 14.3967 22.9125C14.3966 27.2721 17.7228 30.806 21.8261 30.8058C25.9294 30.8056 29.2559 27.2714 29.2561 22.9119C29.2562 18.5523 25.93 15.0184 21.8267 15.0186Z" fill="#3C0DEF"/>
  <path d="M21.8693 20.2737C21.2834 20.2737 20.8079 19.7685 20.808 19.1461L20.808 17.2741C20.8081 16.6517 21.2836 16.1465 21.8695 16.1464C22.4553 16.1464 22.9308 16.6516 22.9308 17.2741L22.9307 19.146C22.9307 19.7684 22.4552 20.2736 21.8693 20.2737ZM21.8689 29.6784C21.283 29.7032 20.7884 29.2183 20.7651 28.5959C20.7651 28.5801 20.7651 28.5643 20.7651 28.5508L20.7652 26.6788C20.7652 26.0564 21.2407 25.5512 21.8266 25.5511C22.4125 25.5511 22.888 26.0563 22.8879 26.6787L22.8879 28.5507C22.8878 29.1573 22.4378 29.6535 21.8689 29.6784Z" fill="#3C0DEF"/>
  <path d="M22.6757 27.8065L20.1071 27.8066C19.5212 27.8066 19.0458 27.3014 19.0458 26.679C19.0458 26.0565 19.5213 25.5513 20.1072 25.5513L22.6758 25.5511C23.0663 25.5398 23.3763 25.1993 23.3763 24.7843C23.389 24.3851 23.094 24.0536 22.7183 24.0401C22.7034 24.0401 22.6886 24.0401 22.6758 24.0401L20.9776 24.0401C19.4131 23.8959 18.2542 22.4322 18.3901 20.7678C18.509 19.3041 19.6023 18.1448 20.9779 18.0184L23.5676 18.0183C24.1535 18.0183 24.629 18.5235 24.629 19.1459C24.6289 19.7684 24.1534 20.2736 23.5675 20.2736L20.9778 20.2738C20.5872 20.2851 20.2772 20.6256 20.2772 21.0406C20.2645 21.4398 20.5595 21.7713 20.9352 21.7848C20.9501 21.7848 20.965 21.7848 20.9777 21.7848L22.6759 21.7848C24.2404 21.929 25.3993 23.3927 25.2634 25.0571C25.1445 26.5208 24.0512 27.6801 22.6757 27.8065Z" fill="#3C0DEF"/>
</svg>