<svg xmlns="http://www.w3.org/2000/svg" width="47" height="45" viewBox="0 0 47 45" fill="none">
  <rect width="32.6562" height="8.3936" transform="matrix(1 -4.37305e-05 -4.20303e-05 1 10.5059 18.5381)" fill="#C8F7FB"/>
  <path d="M43.8991 18.2151L43.9346 18.3519L44.0365 18.4498C45.3299 19.6922 45.9566 21.1148 45.9565 22.7376L45.9559 38.2324C45.9557 41.7006 43.2031 44.3732 39.543 44.3733L14.1967 44.3744C10.5365 44.3746 7.78415 41.7022 7.78429 38.2341L7.78472 28.0518L7.78473 27.7665L7.53919 27.6214L4.54379 25.8507L4.53693 25.8466L4.52994 25.8428C1.5482 24.206 0.498526 20.3266 2.40102 17.4837L2.4054 17.4772L2.40956 17.4705L10.7053 4.18884L10.7121 4.17792L10.7184 4.16667C12.407 1.1251 16.4603 0.268798 19.4825 1.92399L41.1267 14.5316C42.4212 15.3631 43.477 16.593 43.8991 18.2151ZM41.848 25.4513L42.348 25.4513L42.348 24.9513L42.3481 22.7377C42.3482 21.0835 40.9195 20.0243 39.544 20.0243L14.1977 20.0254C13.3987 20.0255 12.6915 20.283 12.1807 20.7737C11.6682 21.266 11.3934 21.9552 11.3934 22.7391L11.3933 24.9526L11.3933 25.4526L11.8933 25.4526L41.848 25.4513ZM6.34399 22.9512L6.39029 22.9778L6.44119 22.9941L7.13245 23.2155L7.78492 23.4244L7.78495 22.7393C7.78509 19.2711 10.5377 16.5985 14.1978 16.5983L35.8574 16.5974L37.7464 16.5973L36.1048 15.6628L17.4629 5.05103C16.8776 4.64051 16.1109 4.51914 15.4289 4.6502C14.7466 4.78131 14.0727 5.18319 13.754 5.90489L5.47849 19.1542C4.6577 20.4683 4.9144 22.1272 6.34399 22.9512ZM11.8931 28.8797L11.3931 28.8797L11.3931 29.3797L11.3927 38.2339C11.3927 39.0178 11.6674 39.7069 12.1799 40.1993C12.6906 40.6899 13.3978 40.9474 14.1968 40.9474L39.5431 40.9462C40.9187 40.9462 42.3474 39.8868 42.3475 38.2326L42.3478 29.3784L42.3479 28.8784L41.8479 28.8784L11.8931 28.8797Z" fill="#3C0DEF" stroke="#F2ECFE"/>
</svg>