<svg xmlns="http://www.w3.org/2000/svg" width="43" height="40" viewBox="0 0 43 40" fill="none">
  <circle cx="9.51074" cy="9.51074" r="9.51074" transform="matrix(1 -4.37305e-05 -4.20303e-05 1 23.7327 0.761719)" fill="#C8F7FB"/>
  <path d="M1.81773 38.9203L9.00637 38.9205L9.00602 28.1389C6.64896 28.4542 4.25355 28.6358 1.8174 28.6358L1.81773 38.9203Z" stroke="#3C0DEF" stroke-width="2" stroke-linecap="round" stroke-linejoin="round"/>
  <path d="M12.2009 38.9206L19.3895 38.9209L19.3891 25.6907C17.0552 26.4937 14.6542 27.1329 12.2005 27.6136L12.2009 38.9206Z" stroke="#3C0DEF" stroke-width="2" stroke-linecap="round" stroke-linejoin="round"/>
  <path d="M22.5841 38.9194L29.7738 38.9197L29.7732 20.8528C27.4701 22.23 25.068 23.4383 22.5836 24.4709L22.5841 38.9203L22.5841 38.9194Z" stroke="#3C0DEF" stroke-width="2" stroke-linecap="round" stroke-linejoin="round"/>
  <path d="M32.9674 38.9194L40.1572 38.9196L40.1564 12.9104C37.9124 15.0658 35.5071 17.0266 32.9667 18.7868L32.9674 38.9194Z" stroke="#3C0DEF" stroke-width="2" stroke-linecap="round" stroke-linejoin="round"/>
  <path d="M39.9385 7.78242L39.8586 7.77556L40.1333 4.4031L36.9902 4.10817L36.9974 4.02246L40.2203 4.32511L39.9385 7.78242Z" stroke="#3C0DEF" stroke-width="2" stroke-linecap="round" stroke-linejoin="round"/>
  <path d="M1.81887 20.1053L1.81887 20.0196C15.9769 20.0201 29.5836 14.4406 40.1325 4.30999L40.1853 4.3734C29.622 14.5185 15.9961 20.1058 1.81887 20.1053Z" stroke="#3C0DEF" stroke-width="2" stroke-linecap="round" stroke-linejoin="round"/>
</svg>