<svg xmlns="http://www.w3.org/2000/svg" width="42" height="43" viewBox="0 0 42 43" fill="none">
  <path d="M31.2669 32.0228L31.6277 32.0228L37.6777 30.1957C37.8815 30.1641 38.0895 30.1641 38.2933 30.1957C39.5245 30.1911 40.5243 31.2488 40.5284 32.5569C40.5305 33.4771 40.0316 34.3138 39.2483 34.7063C35.0027 36.8265 24.3887 41.9691 22.266 41.6083C19.6338 41.1574 8.21347 37.5268 8.21347 37.5268L6.09071 37.5269L6.09128 23.995L8.21404 23.9949C10.7211 23.2618 13.3554 23.1782 15.8984 23.7464C18.1973 24.7793 20.3413 26.1617 22.2665 27.8508L29.6325 28.3692C30.7554 28.4414 31.63 29.4292 31.6278 30.6245L31.6278 30.7598C31.6278 31.2086 31.5025 31.6484 31.2669 32.0228Z" fill="#F5F1FF"/>
  <path d="M25.2598 19.4836C29.9493 19.4834 33.751 15.4443 33.7512 10.4619C33.7514 5.47963 29.95 1.44083 25.2606 1.44103C20.5711 1.44124 16.7694 5.48037 16.7692 10.4627C16.7689 15.445 20.5703 19.4838 25.2598 19.4836Z" fill="#C8F7FB"/>
  <path d="M1.90896 36.3993C2.49059 36.388 2.95974 35.8895 2.97038 35.2716C3.00011 35.1295 3.00011 34.9852 2.9704 34.8431C2.92583 34.7032 2.84517 34.5769 2.73691 34.4822C2.63715 34.3198 2.48644 34.2003 2.31238 34.1439C2.17864 34.1237 2.04279 34.1237 1.90905 34.144L1.90967 19.4844L6.15519 19.4842L6.15433 39.7821L1.90881 39.7823L1.90896 36.3993Z" fill="#C8F7FB"/>
  <path d="M1.90903 36.3994L1.90913 34.1441C2.04286 34.1238 2.17872 34.1238 2.31245 34.1441C2.44406 34.1915 2.56293 34.2772 2.65208 34.3922C2.76034 34.4869 2.841 34.6132 2.88557 34.753C2.91528 34.8951 2.91528 35.0394 2.88555 35.1815C2.87491 35.7995 2.40576 36.2979 1.82413 36.3092L1.90903 36.3994Z" fill="#3C0DEF"/>
  <path d="M1.90913 34.1442L1.90904 36.3995C1.77743 36.4333 1.63733 36.4333 1.50572 36.3995C1.37411 36.3521 1.25524 36.2664 1.16608 36.1514C0.936836 35.9282 0.817976 35.6011 0.847708 35.2719C0.817995 35.1298 0.818001 34.9854 0.847726 34.8434C0.89231 34.7035 0.97298 34.5772 1.08124 34.4825C1.18102 34.3201 1.33174 34.2006 1.50581 34.1442C1.63955 34.1239 1.7754 34.1239 1.90913 34.1442ZM22.4995 42.736L22.075 42.736C19.5489 42.3076 9.44472 39.1281 8.04372 38.6771L6.15446 38.6772C5.56858 38.6772 5.0931 38.172 5.09313 37.5496C5.09316 36.9271 5.56868 36.4219 6.15456 36.4218L8.5745 36.4217C8.70187 36.4217 19.9736 40.0298 22.4996 40.4807C23.4973 40.6611 28.868 38.586 38.8027 33.714C39.3334 33.4321 39.5945 32.7826 39.4184 32.1804C39.1785 31.5805 38.5757 31.2422 37.9749 31.3685L31.925 33.1956C31.3391 33.3693 30.7299 33.0062 30.5665 32.3838C30.403 31.7613 30.7448 31.114 31.3307 30.9403L37.3807 29.1132C37.6757 29.0185 37.9835 28.9734 38.2934 28.9779C40.1211 28.8989 41.6622 30.4099 41.7364 32.3517C41.7915 33.8244 40.9764 35.1799 39.6942 35.7438C30.3751 40.3902 24.5798 42.7359 22.4995 42.736Z" fill="#3C0DEF"/>
  <path d="M29.505 34.143L16.7684 34.1436C16.1825 34.1436 15.7071 33.6385 15.7071 33.016C15.7071 32.3935 16.1826 31.8883 16.7685 31.8883L29.5051 31.8877C29.8574 31.8742 30.1844 31.6915 30.3967 31.3915C30.507 31.2021 30.5644 30.9833 30.5665 30.76C30.626 30.1285 30.1929 29.5647 29.5986 29.4993C29.588 29.4993 29.5795 29.4993 29.5689 29.4971L22.2029 28.9787C21.9864 28.9584 21.7805 28.8704 21.6085 28.7306C19.8255 27.1384 17.8386 25.8259 15.7074 24.8292C13.3427 24.3218 10.8973 24.4212 8.57495 25.1227L6.15501 25.1228C5.56913 25.1228 5.09365 24.6176 5.09368 23.9952C5.0937 23.3727 5.56922 22.8675 6.1551 22.8675L8.12927 22.8674C10.77 22.1117 13.5445 22.0439 16.217 22.664C18.5265 23.6653 20.6747 25.041 22.5851 26.7459L29.6114 27.2418C31.4051 27.2732 32.8358 28.8429 32.806 30.7486C32.7762 32.6544 31.2987 34.1745 29.505 34.143Z" fill="#3C0DEF"/>
  <path d="M6.15382 40.91L1.90831 40.9102C1.32242 40.9102 0.846948 40.405 0.846974 39.7826C0.847 39.1601 1.32252 38.6549 1.9084 38.6549L5.09254 38.6547L5.0933 20.6122L1.90916 20.6123C1.32328 20.6123 0.847801 20.1072 0.847827 19.4847C0.847853 18.8622 1.32337 18.357 1.90925 18.357L6.15477 18.3568C6.74065 18.3568 7.21613 18.8619 7.2161 19.4844L7.21525 39.7823C7.21523 40.4048 6.73971 40.91 6.15382 40.91ZM25.2595 20.6113C19.9845 20.6115 15.7073 16.0672 15.7075 10.4627C15.7078 4.85828 19.9832 0.313616 25.2604 0.313386C30.5375 0.313155 34.8126 4.85744 34.8124 10.4619C34.8015 16.0619 30.5303 20.5998 25.2595 20.6113ZM25.2603 2.56871C21.157 2.56889 17.8305 6.10312 17.8303 10.4627C17.8301 14.8222 21.1563 18.3561 25.2596 18.356C29.3629 18.3558 32.6894 14.8215 32.6896 10.462C32.6898 6.10247 29.3636 2.56853 25.2603 2.56871Z" fill="#3C0DEF"/>
  <path d="M25.3029 7.82348C24.717 7.8235 24.2415 7.31833 24.2415 6.69586L24.2416 4.82395C24.2417 4.20148 24.7172 3.69627 25.3031 3.69624C25.8889 3.69622 26.3644 4.20139 26.3644 4.82386L26.3643 6.69577C26.3643 7.31824 25.8888 7.82345 25.3029 7.82348ZM25.3025 17.2282C24.7166 17.253 24.222 16.7681 24.1987 16.1457C24.1987 16.1299 24.1987 16.1141 24.1987 16.1006L24.1988 14.2286C24.1988 13.6062 24.6743 13.101 25.2602 13.1009C25.8461 13.1009 26.3216 13.6061 26.3215 14.2285L26.3215 16.1005C26.3214 16.7071 25.8714 17.2033 25.3025 17.2282Z" fill="#3C0DEF"/>
  <path d="M26.1092 15.3563L23.5407 15.3564C22.9548 15.3564 22.4794 14.8512 22.4794 14.2288C22.4794 13.6063 22.9549 13.1011 23.5408 13.1011L26.1093 13.1009C26.4999 13.0897 26.8099 12.7491 26.8099 12.3341C26.8226 11.9349 26.5276 11.6034 26.1519 11.5899C26.137 11.5899 26.1221 11.5899 26.1094 11.5899L24.4112 11.59C22.8467 11.4457 21.6878 9.98203 21.8237 8.3176C21.9426 6.85389 23.0359 5.6946 24.4115 5.56825L27.0012 5.56813C27.5871 5.56811 28.0626 6.07328 28.0626 6.69575C28.0625 7.31822 27.587 7.82343 27.0011 7.82345L24.4114 7.82357C24.0208 7.83486 23.7108 8.17543 23.7108 8.59041C23.6981 8.9896 23.9931 9.32112 24.3688 9.33463C24.3837 9.33463 24.3986 9.33463 24.4113 9.33463L26.1095 9.33456C27.674 9.47883 28.8329 10.9425 28.697 12.6069C28.5781 14.0706 27.4848 15.2299 26.1092 15.3563Z" fill="#3C0DEF"/>
</svg>