<svg xmlns="http://www.w3.org/2000/svg" width="38" height="47" viewBox="0 0 38 47" fill="none">
  <circle cx="9.51074" cy="9.51074" r="9.51074" transform="matrix(1 -4.37305e-05 -4.20303e-05 1 12.4561 7.9873)" fill="#C8F7FB"/>
  <path d="M0.907638 26.8925C0.909471 26.8284 0.912675 26.7647 0.917075 26.7014C0.881088 25.725 0.859031 23.0254 1.48822 19.8147C2.11842 16.5988 3.40342 12.8628 5.9894 9.83345L5.98941 9.83344C9.00582 6.30037 13.2158 4.43368 18.4948 4.26239L18.4949 1.70589C18.4949 1.24533 18.8398 0.857228 19.2832 0.857208C19.7266 0.857189 20.0714 1.24526 20.0714 1.70583L20.0712 4.26215C25.3505 4.43259 29.5608 6.29879 32.5772 9.83212L32.5011 9.89705L32.5772 9.83213C35.4325 13.1774 36.7015 17.3844 37.2541 20.802C37.8069 24.2208 37.6445 26.8595 37.6297 27.0771L37.6297 27.0771C37.5998 27.5144 37.262 27.8634 36.8444 27.8635L36.8437 27.8635C36.8354 27.8635 36.8251 27.8635 36.8145 27.8631L36.8141 27.8631C36.3836 27.8456 36.0554 27.4638 36.0555 27.0148C36.0555 25.3243 34.4528 23.9244 32.45 23.9245C30.4473 23.9246 28.8444 25.3246 28.8444 27.0152C28.8444 27.4758 28.4995 27.8638 28.0561 27.8638C27.6127 27.8639 27.2678 27.4758 27.2679 27.0152C27.2679 25.3247 25.665 23.9248 23.6624 23.9249C21.7039 23.925 20.1366 25.2675 20.0696 26.9089L20.069 41.9354C20.0689 43.2357 21.0394 44.2788 22.2152 44.2787C22.7896 44.2787 23.3279 44.038 23.7326 43.598C24.1374 43.1577 24.3615 42.5677 24.3616 41.9352L24.3617 39.9898C24.3617 39.5292 24.7065 39.1411 25.1499 39.1411C25.5933 39.1411 25.9382 39.5291 25.9382 39.9897L25.9381 41.9351C25.938 43.015 25.5536 44.0302 24.8529 44.7921C24.1519 45.5542 23.2155 45.976 22.2151 45.976C20.1546 45.9761 18.4924 44.1556 18.4927 41.9355L18.4933 27.091C18.4932 27.0905 18.4931 27.0899 18.4929 27.0892L18.4893 27.0753C18.4863 27.0636 18.4805 27.0415 18.4805 27.0154C18.4806 25.3249 16.8773 23.925 14.8747 23.9251C12.994 23.9251 11.4641 25.1614 11.2864 26.7122C11.2935 26.8128 11.2967 26.914 11.2967 27.0157C11.2967 27.4763 10.9518 27.8644 10.5084 27.8644L10.4993 27.8644L10.4993 27.864C10.4996 27.864 10.4995 27.864 10.4989 27.864C10.4984 27.864 10.4975 27.864 10.4962 27.864L10.4843 27.8643L10.4809 27.8645L10.4809 27.8644C10.0375 27.8644 9.69265 27.4764 9.69267 27.0158C9.69275 25.3292 8.09733 23.9319 6.10157 23.9255C4.10514 23.9321 2.50955 25.3293 2.50948 27.0161C2.50946 27.4649 2.18149 27.8466 1.75122 27.8644C1.75107 27.8644 1.75091 27.8644 1.75075 27.8644L0.907638 26.8925ZM0.907638 26.8925L0.905304 26.892L0.905299 27.0162C0.905279 27.4869 1.26911 27.8563 1.70505 27.8648C1.70497 27.8648 1.70489 27.8648 1.70481 27.8648L0.907638 26.8925ZM6.11614 22.2283C7.95428 22.2287 9.57409 23.1183 10.4941 24.4597C11.415 23.1178 13.0355 22.228 14.8744 22.2279C16.7226 22.2278 18.3502 23.1266 19.2684 24.4794C20.1863 23.1264 21.8145 22.2276 23.6623 22.2275C25.5101 22.2275 27.1384 23.1257 28.056 24.4789C28.974 23.1257 30.6023 22.2272 32.4499 22.2272C33.8089 22.2271 35.0487 22.7132 35.9748 23.5081C35.6914 20.0824 34.694 14.8165 31.4101 10.974C28.5609 7.64024 24.4854 5.94422 19.2832 5.94149C14.0774 5.94452 9.99952 7.64363 7.15002 10.9818L7.14974 10.9821C7.14908 10.9829 7.14842 10.9837 7.14777 10.9844C3.87165 14.8246 2.8739 20.0659 2.58909 23.4867C3.51171 22.7055 4.74007 22.2288 6.08541 22.2283M6.11614 22.2283C6.11664 22.2283 6.11715 22.2283 6.11765 22.2283L6.11467 22.3283L6.11468 22.2283C6.11516 22.2283 6.11565 22.2283 6.11614 22.2283ZM6.11614 22.2283C6.10502 22.228 6.09558 22.228 6.08541 22.2283M6.08541 22.2283C6.08477 22.2283 6.08413 22.2284 6.08348 22.2284L6.08714 22.3283L6.08715 22.2283C6.08657 22.2283 6.08599 22.2283 6.08541 22.2283ZM2.57758 23.6288C2.54111 23.661 2.50516 23.6936 2.46974 23.7267C2.47338 23.6785 2.47716 23.6298 2.48108 23.5808L2.57758 23.6288Z" fill="#3C0DEF" stroke="#3C0DEF" stroke-width="0.2"/>
</svg>