<svg xmlns="http://www.w3.org/2000/svg" width="47" height="43" viewBox="0 0 47 43" fill="none">
  <circle cx="8.03645" cy="8.03645" r="8.03645" transform="matrix(1 -4.37305e-05 -4.20303e-05 1 15.2517 15.4932)" fill="#C8F7FB"/>
  <path d="M33.7542 41.7704L29.1046 41.7705C28.2269 41.7705 27.5126 40.9944 27.5127 40.0396L27.5129 38.5844C26.0166 38.9298 24.4662 39.1049 22.9049 39.1049C21.3437 39.1049 19.7933 38.9299 18.2962 38.5845L18.2961 40.0398C18.2959 40.9946 17.5823 41.7707 16.7046 41.7707L12.0542 41.7708C11.1764 41.7708 10.463 40.9947 10.4631 40.0399L10.4638 34.7873C9.1777 33.7428 8.14003 32.8352 7.26242 31.8116C6.2898 30.6773 5.61309 29.5122 5.13562 28.1466L2.75582 28.1467C1.87809 28.1467 1.16465 27.3706 1.16477 26.4158L1.16558 19.6717C1.16569 18.7169 1.87931 17.9407 2.75705 17.9407L5.13102 17.9407C6.25587 14.7164 8.45182 11.6952 11.3195 9.42741L11.3203 2.7558C11.3204 2.45659 11.4438 2.17823 11.6597 1.99416C11.8764 1.80737 12.1565 1.74207 12.4282 1.81279C12.9875 1.96058 14.4229 2.43385 15.6814 3.64157C16.9566 4.86652 17.6032 6.4161 17.603 8.24675L17.5197 8.24676C17.5199 6.4433 16.8824 4.91641 15.6264 3.70959C14.382 2.51547 12.9617 2.04671 12.4091 1.90074C12.1623 1.83274 11.9089 1.89622 11.7114 2.06487C11.5163 2.23262 11.4037 2.48379 11.4037 2.7558L11.4029 9.47274L11.3862 9.48725C8.51517 11.7532 6.31755 14.7771 5.2002 18.0023L5.19019 18.0313L2.7587 18.0314C1.92681 18.0314 1.24987 18.7668 1.24976 19.6726L1.24895 26.4167C1.24884 27.3216 1.92561 28.0579 2.7575 28.0578L5.19482 28.0578L5.20482 28.0868C6.2389 31.0699 8.22839 32.8606 10.5313 34.7293L10.548 34.7429L10.5473 40.0417C10.5472 40.9466 11.224 41.6829 12.0559 41.6829L16.7063 41.6828C17.5382 41.6828 18.2151 40.9474 18.2152 40.0416L18.2154 38.4748L18.2654 38.4866C19.7724 38.8384 21.3337 39.017 22.9066 39.0169C24.4795 39.0169 26.0408 38.8383 27.5471 38.4864L27.5979 38.4746L27.5977 40.0414C27.5976 40.9463 28.2744 41.6826 29.1063 41.6826L33.7558 41.6825C34.5877 41.6825 35.2647 40.9471 35.2648 40.0413L35.2654 34.7425L35.2821 34.7289C39.2119 31.539 41.4663 26.9727 41.4669 22.2016C41.468 12.9295 33.1442 5.38669 22.9106 5.38687C20.8776 5.38691 18.7845 5.73513 17.5791 6.27283L17.5474 6.18942C18.7628 5.64628 20.8676 5.29715 22.9106 5.29711C33.1892 5.29692 41.5506 12.8805 41.5494 22.2025C41.5489 26.9963 39.2894 31.5834 35.3479 34.7896L35.3473 40.0422C35.3472 40.997 34.6336 41.7731 33.755 41.7732L33.7542 41.7704Z" stroke="#3C0DEF" stroke-width="2.2" stroke-linecap="round" stroke-linejoin="round"/>
  <path d="M45.3911 12.5224C45.5421 11.2286 44.0809 10.5305 43.2621 11.4825C42.3158 12.5832 40.2459 13.2577 38.6787 13.2641C39.8989 15.0293 40.7656 17.013 41.1955 19.1364C43.2297 17.7093 45.1232 14.8279 45.3911 12.5224Z" stroke="#3C0DEF" stroke-width="2.2" stroke-linecap="round" stroke-linejoin="round"/>
  <path d="M13.9515 18.2971L13.8681 18.2971C13.8682 17.303 13.1237 16.4948 12.2099 16.4948C11.2962 16.4949 10.5516 17.3032 10.5515 18.2973L10.4682 18.2973C10.4682 17.2534 11.2495 16.4043 12.2099 16.4042C13.1704 16.4042 13.9516 17.2532 13.9515 18.2971Z" stroke="#3C0DEF" stroke-width="2.2" stroke-linecap="round" stroke-linejoin="round"/>
  <path d="M26.2827 12.9622C26.2702 12.9531 25.0015 12.0367 22.9066 12.0368C20.8118 12.0369 19.543 12.9535 19.5305 12.9625L19.4838 12.8882C19.4963 12.8782 20.7843 11.9472 22.9066 11.9471C25.029 11.947 26.3169 12.8779 26.3294 12.8878L26.2827 12.9622Z" stroke="#3C0DEF" stroke-width="2.2" stroke-linecap="round" stroke-linejoin="round"/>
  <path d="M23.28 30.9208C19.1658 30.921 15.8298 27.3767 15.83 23.0055C15.8302 18.6343 19.1648 15.0897 23.2807 15.0895C27.3966 15.0893 30.7309 18.6336 30.7307 23.0048C30.7223 27.3725 27.391 30.9118 23.28 30.9208ZM23.2806 16.8485C20.0803 16.8487 17.4858 19.6052 17.4856 23.0054C17.4855 26.4056 20.0798 29.1619 23.2801 29.1617C26.4804 29.1616 29.0749 26.4051 29.0751 23.0049C29.0752 19.6047 26.481 16.8484 23.2806 16.8485Z" fill="#3C0DEF"/>
  <path d="M23.3134 20.9514C22.8565 20.9514 22.4856 20.5574 22.4857 20.0719L22.4857 18.6119C22.4857 18.1264 22.8566 17.7324 23.3136 17.7324C23.7705 17.7324 24.1414 18.1264 24.1414 18.6119L24.1413 20.0719C24.1413 20.5573 23.7704 20.9514 23.3134 20.9514ZM23.3131 28.2866C22.8562 28.3059 22.4704 27.9278 22.4522 27.4423C22.4522 27.4299 22.4522 27.4176 22.4522 27.4071L22.4523 25.9471C22.4523 25.4616 22.8232 25.0676 23.2801 25.0675C23.7371 25.0675 24.1079 25.4615 24.1079 25.947L24.1079 27.407C24.1078 27.8802 23.7568 28.2672 23.3131 28.2866Z" fill="#3C0DEF"/>
  <path d="M23.9424 26.8274L21.9391 26.8275C21.4821 26.8275 21.1113 26.4335 21.1113 25.948C21.1113 25.4625 21.4822 25.0685 21.9392 25.0685L23.9425 25.0684C24.2471 25.0596 24.4888 24.7939 24.4889 24.4703C24.4988 24.1589 24.2687 23.9004 23.9756 23.8898C23.964 23.8898 23.9525 23.8898 23.9425 23.8898L22.618 23.8899C21.3978 23.7774 20.4939 22.6358 20.5999 21.3376C20.6927 20.196 21.5454 19.2918 22.6182 19.1933L24.6381 19.1932C25.095 19.1932 25.4659 19.5872 25.4659 20.0727C25.4659 20.5582 25.095 20.9522 24.638 20.9522L22.6181 20.9523C22.3135 20.9611 22.0718 21.2267 22.0718 21.5504C22.0618 21.8617 22.2919 22.1203 22.585 22.1309C22.5966 22.1308 22.6082 22.1308 22.6181 22.1308L23.9426 22.1308C25.1628 22.2433 26.0667 23.3849 25.9607 24.6831C25.868 25.8247 25.0153 26.7288 23.9424 26.8274Z" fill="#3C0DEF"/>
</svg>